<?xml version="1.0" standalone="no"?>
<!DOCTYPE svg PUBLIC "-//W3C//DTD SVG 20010904//EN"
 "http://www.w3.org/TR/2001/REC-SVG-20010904/DTD/svg10.dtd">
<svg version="1.0" xmlns="http://www.w3.org/2000/svg"
 width="1024.000000pt" height="1024.000000pt" viewBox="0 0 1024.000000 1024.000000"
 preserveAspectRatio="xMidYMid meet">

<g transform="translate(0.000000,1024.000000) scale(0.100000,-0.100000)"
fill="#000000" stroke="none">
<path d="M5675 8604 c-119 -42 -125 -45 -125 -67 0 -35 38 -90 57 -83 9 4 58
25 110 48 84 37 93 43 93 67 0 15 -5 32 -12 39 -16 16 -73 14 -123 -4z"/>
<path d="M4864 8524 c20 -165 25 -263 26 -524 1 -268 0 -285 -17 -288 -26 -5
-167 -47 -323 -97 -74 -24 -156 -48 -181 -54 -25 -6 -53 -13 -62 -17 -15 -6
-17 8 -17 152 -1 266 -18 328 -120 438 -73 77 -192 150 -318 192 -110 38 -158
43 -148 18 11 -30 56 -284 66 -378 14 -132 31 -529 22 -537 -4 -4 -79 -19
-167 -33 -402 -64 -683 -87 -834 -67 -47 6 -86 9 -89 7 -16 -17 92 -163 218
-293 103 -105 174 -143 286 -150 93 -6 489 37 577 63 15 5 17 -2 17 -52 0 -90
-29 -389 -51 -514 -80 -469 -282 -907 -567 -1226 -192 -215 -482 -431 -774
-574 -153 -76 -143 -68 -117 -96 65 -69 423 -108 594 -64 103 26 279 114 388
193 370 268 665 689 825 1177 123 375 173 661 190 1083 l7 189 105 27 c58 16
184 50 280 76 96 26 184 49 195 52 20 4 20 -2 24 -458 l4 -462 -229 7 c-126 4
-238 8 -249 9 -31 3 -29 -28 5 -133 36 -111 97 -213 172 -289 77 -77 95 -84
200 -79 l89 4 -6 -50 c-40 -302 -182 -737 -364 -1111 -132 -272 -277 -498
-484 -755 -101 -125 -373 -388 -542 -523 -263 -211 -651 -460 -855 -548 -191
-82 -68 -122 255 -83 242 30 396 80 677 219 380 190 754 528 1064 961 162 227
227 336 338 566 84 174 216 482 216 505 0 5 6 18 14 28 13 18 15 16 41 -26
136 -219 446 -618 620 -798 216 -224 637 -567 860 -700 248 -148 506 -259 668
-287 214 -37 493 29 634 150 41 36 89 118 79 134 -3 5 -29 12 -58 16 -124 16
-481 120 -673 196 -142 56 -426 210 -565 306 -168 116 -248 180 -472 377 -166
147 -220 203 -263 271 l-19 28 680 -3 679 -3 67 26 c199 78 323 221 392 451
44 145 60 144 -384 46 -77 -17 -156 -19 -941 -24 l-857 -5 -30 37 c-53 68
-149 217 -196 304 -57 106 -86 189 -86 245 l0 44 753 2 752 3 70 38 c124 66
233 181 285 303 24 53 60 221 52 242 -9 26 -159 4 -303 -47 -48 -17 -117 -35
-153 -41 -42 -7 -316 -10 -761 -9 l-695 1 0 199 0 199 63 1 c34 1 409 4 832 8
l770 6 80 38 c64 31 95 54 160 121 118 121 156 202 189 404 4 24 2 34 -10 39
-25 9 -286 -45 -389 -81 l-90 -31 -802 -3 -803 -3 0 105 c0 100 1 106 20 106
38 0 410 132 685 243 311 125 716 322 813 394 76 57 118 130 109 193 -9 67
-162 301 -206 315 -13 4 -59 -23 -152 -90 -163 -117 -285 -187 -460 -264 -74
-32 -165 -73 -204 -91 -88 -40 -531 -216 -566 -224 l-26 -6 -6 107 c-4 58 -7
143 -7 188 0 72 -3 86 -28 126 -35 54 -111 123 -186 168 -61 36 -195 85 -265
96 l-44 7 7 -58z"/>
<path d="M6015 8450 c-92 -24 -209 -71 -318 -127 l-89 -46 7 -36 c4 -20 10
-40 14 -44 14 -14 160 41 338 128 151 75 203 110 203 137 0 14 -83 8 -155 -12z"/>
<path d="M4520 8310 c-36 -17 -66 -33 -67 -34 -6 -6 28 -91 43 -107 10 -12 16
-48 19 -130 6 -140 13 -199 25 -199 6 0 30 5 55 12 l45 12 -3 236 -2 235 -25
3 c-14 1 -54 -11 -90 -28z"/>
<path d="M3450 7739 c-73 -47 -183 -134 -223 -176 l-28 -30 103 18 c57 10 135
31 175 46 l72 27 -5 66 c-7 75 -10 90 -22 90 -5 0 -37 -18 -72 -41z"/>
<path d="M7070 7759 c-14 -6 -97 -32 -185 -59 -162 -50 -499 -170 -590 -211
l-50 -23 45 -8 c59 -11 393 7 494 26 44 9 126 20 183 26 57 6 110 13 118 16
24 10 68 112 68 158 0 75 -25 98 -83 75z"/>
<path d="M7710 7281 c-5 -11 -10 -55 -10 -98 0 -73 -29 -263 -85 -553 -27
-137 -108 -420 -148 -515 -14 -33 -39 -99 -55 -147 -43 -119 -70 -171 -140
-258 -53 -66 -172 -254 -172 -271 0 -6 98 -19 142 -19 20 0 82 90 181 265 104
185 211 432 266 617 81 273 137 557 148 749 10 192 -9 249 -82 249 -24 0 -37
-6 -45 -19z"/>
<path d="M4527 6778 c-4 -62 -7 -137 -7 -165 l0 -53 54 0 53 0 6 83 c4 45 7
119 7 165 l0 82 -53 0 -54 0 -6 -112z"/>
<path d="M2644 6844 c-21 -14 -57 -43 -79 -63 -22 -21 -53 -48 -70 -60 -54
-40 -117 -104 -126 -128 -11 -28 10 -77 40 -93 50 -26 72 -14 174 92 98 103
157 177 157 197 0 14 -43 81 -51 81 -3 0 -24 -12 -45 -26z"/>
<path d="M2985 6682 c-16 -11 -79 -59 -140 -106 -60 -48 -157 -124 -215 -169
-232 -180 -360 -292 -360 -317 0 -19 52 -60 75 -60 15 0 57 20 93 43 70 45
266 196 362 277 30 26 89 71 130 100 102 72 262 201 257 207 -5 5 -104 31
-147 39 -15 3 -37 -3 -55 -14z"/>
<path d="M3432 6609 c-44 -22 -115 -70 -158 -106 -44 -36 -131 -105 -194 -154
-63 -48 -149 -116 -192 -151 -42 -35 -123 -99 -180 -143 -202 -155 -396 -317
-409 -341 -11 -21 -10 -27 11 -49 26 -27 50 -31 83 -13 35 18 283 198 505 367
114 86 254 193 312 236 330 248 302 217 316 338 4 37 3 57 -4 57 -6 0 -46 -18
-90 -41z"/>
<path d="M7920 6505 c-6 -8 -24 -76 -40 -152 -53 -263 -106 -410 -251 -691
-49 -95 -89 -179 -89 -186 0 -15 120 -42 144 -33 15 6 147 270 208 417 53 130
110 319 143 477 26 125 27 133 11 158 -14 21 -24 25 -65 25 -30 0 -53 -5 -61
-15z"/>
<path d="M3419 6230 c-31 -9 -193 -120 -339 -234 -58 -45 -123 -95 -145 -111
-22 -16 -87 -66 -145 -112 -58 -45 -193 -149 -300 -231 -107 -82 -201 -156
-209 -165 -19 -24 -6 -62 29 -87 49 -35 26 -50 832 559 238 180 255 195 274
240 21 49 43 140 36 145 -4 2 -19 0 -33 -4z"/>
<path d="M3190 5699 c-19 -12 -57 -40 -85 -63 -27 -23 -97 -78 -155 -121 -58
-43 -134 -106 -171 -142 -38 -37 -90 -75 -125 -92 -32 -16 -84 -51 -115 -78
-30 -27 -80 -61 -111 -76 -80 -39 -110 -70 -106 -109 2 -20 13 -38 29 -51 35
-26 75 -13 149 48 30 25 82 61 115 80 33 18 87 56 121 83 33 27 83 62 110 77
108 63 249 184 318 274 47 60 96 151 96 176 0 21 -29 19 -70 -6z"/>
<path d="M7997 5638 c-14 -13 -41 -64 -61 -114 -28 -72 -36 -106 -36 -156 0
-59 2 -66 25 -76 14 -6 25 -19 25 -29 0 -14 4 -12 26 8 32 30 94 157 130 267
33 101 28 116 -38 120 -36 2 -51 -2 -71 -20z"/>
<path d="M4354 5601 c-21 -9 -91 -157 -99 -211 -2 -14 -7 -43 -10 -65 -6 -32
-22 -56 -94 -130 -85 -87 -148 -167 -242 -305 -24 -36 -61 -85 -81 -109 -21
-24 -36 -46 -34 -48 14 -15 453 316 579 436 83 79 111 127 187 319 25 64 30
86 20 92 -6 4 -42 10 -79 14 -36 4 -79 9 -96 11 -16 2 -40 0 -51 -4z"/>
<path d="M6373 5567 c-34 -6 -51 -19 -92 -66 -28 -32 -51 -63 -51 -69 0 -15
53 -22 127 -15 l68 6 69 68 c60 61 65 69 45 70 -13 0 -46 4 -74 8 -27 3 -69 3
-92 -2z"/>
<path d="M5725 5548 c14 -44 60 -121 82 -135 18 -12 32 -13 76 -3 49 10 60 17
104 68 87 103 99 92 -96 92 l-172 0 6 -22z"/>
<path d="M6856 5563 c-56 -5 -90 -25 -131 -79 l-28 -37 53 7 c60 8 79 16 132
59 38 31 56 58 35 55 -7 -1 -34 -3 -61 -5z"/>
<path d="M4226 4858 c-30 -24 -108 -83 -171 -133 -239 -185 -630 -454 -790
-543 -177 -99 -322 -175 -475 -249 -206 -100 -227 -120 -173 -163 23 -18 37
-21 83 -18 46 4 99 27 339 149 294 149 374 193 550 300 456 279 618 410 694
559 20 41 40 90 43 108 6 29 4 32 -19 32 -14 0 -49 -19 -81 -42z"/>
<path d="M5202 4428 c-18 -35 -48 -92 -67 -127 -42 -76 -46 -106 -12 -95 49
15 227 127 227 142 0 12 -100 142 -108 142 -5 0 -23 -28 -40 -62z"/>
<path d="M6818 4442 c-18 -8 -78 -86 -78 -102 0 -14 36 -13 63 2 12 6 44 33
71 60 l50 48 -45 -1 c-24 0 -52 -3 -61 -7z"/>
<path d="M7141 4425 c-49 -42 -191 -215 -191 -234 0 -23 92 -83 121 -79 13 2
45 29 77 68 87 105 150 166 211 207 31 20 59 40 63 43 4 3 -3 5 -15 6 -12 0
-69 4 -127 8 l-106 8 -33 -27z"/>
<path d="M5378 4223 c-15 -10 -71 -50 -125 -89 -210 -152 -290 -207 -354 -245
-75 -44 -107 -81 -116 -135 l-6 -37 42 6 c24 3 79 23 124 45 82 39 352 216
451 295 29 23 65 51 81 63 l29 20 -30 45 c-33 50 -57 57 -96 32z"/>
<path d="M7263 4153 c-94 -107 -107 -143 -49 -143 40 0 81 36 107 95 21 49 28
107 13 112 -6 2 -38 -27 -71 -64z"/>
<path d="M3741 4074 c-35 -19 -86 -52 -115 -74 -57 -42 -179 -120 -301 -189
-76 -44 -195 -147 -195 -170 0 -15 63 -24 107 -16 51 9 207 83 282 134 90 61
182 151 234 229 47 71 72 122 59 122 -4 0 -36 -16 -71 -36z"/>
<path d="M5573 4005 c-18 -7 -72 -42 -120 -77 -103 -74 -259 -177 -358 -238
-38 -24 -82 -51 -96 -60 -14 -10 -79 -46 -145 -80 -65 -35 -155 -87 -200 -116
-45 -30 -120 -72 -167 -94 -87 -41 -137 -85 -137 -121 0 -16 7 -19 44 -19 24
0 61 6 82 14 100 37 275 120 357 171 51 31 195 116 321 190 266 154 428 265
479 327 34 41 36 47 26 81 -11 42 -30 46 -86 22z"/>
<path d="M5812 3824 c-18 -7 -52 -29 -75 -47 -38 -31 -184 -132 -373 -258 -72
-48 -291 -182 -439 -269 -153 -89 -321 -179 -540 -288 -232 -115 -277 -136
-495 -230 -124 -53 -135 -60 -138 -86 -16 -134 230 -62 845 248 466 235 1093
634 1242 790 19 20 41 36 49 36 14 0 11 16 -13 76 -17 42 -24 45 -63 28z"/>
<path d="M5964 3540 c-443 -344 -1073 -734 -1451 -898 -87 -37 -103 -60 -79
-115 12 -31 20 -37 45 -37 39 0 104 22 216 73 210 97 616 325 820 460 336 225
670 494 649 522 -5 7 -21 31 -37 54 -15 22 -29 41 -31 41 -2 0 -61 -45 -132
-100z"/>
<path d="M6269 3411 c-84 -69 -231 -185 -364 -286 -109 -83 -391 -270 -551
-365 -65 -39 -211 -117 -324 -175 -114 -57 -213 -111 -220 -120 -17 -21 -1
-57 36 -81 26 -17 29 -17 93 5 80 28 326 145 436 208 150 87 403 251 556 363
250 183 358 274 441 372 l39 47 -27 38 c-15 21 -31 42 -35 46 -3 5 -40 -19
-80 -52z"/>
<path d="M6528 3248 c-29 -22 -87 -73 -128 -113 -41 -39 -133 -113 -205 -165
-71 -52 -149 -108 -172 -126 -23 -17 -115 -75 -205 -129 -241 -144 -238 -141
-238 -185 0 -42 33 -80 69 -80 53 0 316 157 575 343 190 136 268 199 403 327
l81 77 -47 47 c-26 25 -54 46 -63 46 -9 0 -40 -19 -70 -42z"/>
<path d="M4890 1787 c-3 -3 -85 -8 -183 -11 -233 -9 -437 -35 -437 -57 0 -4
-15 -10 -32 -14 -58 -11 -68 -16 -68 -30 0 -9 -6 -12 -15 -9 -13 5 -14 2 -5
-22 l11 -29 -26 29 c-23 26 -30 27 -26 2 1 -4 -10 -5 -25 -2 -24 6 -25 6 -11
-9 9 -8 20 -15 24 -14 4 1 10 0 13 -1 13 -5 64 -9 170 -15 63 -4 118 -8 121
-11 4 -2 105 -6 225 -9 121 -3 251 -8 291 -11 112 -8 698 -5 908 5 189 9 272
22 310 48 11 7 15 13 10 13 -6 0 -4 4 4 9 18 12 -2 49 -33 61 -27 10 -233 36
-356 45 -47 4 -105 11 -130 17 -46 10 -731 24 -740 15z m-706 -153 c3 -8 2
-12 -4 -9 -6 3 -10 10 -10 16 0 14 7 11 14 -7z"/>
<path d="M6157 1704 c-10 -11 5 -34 22 -34 14 1 14 2 -2 11 -9 6 -15 14 -12
20 7 10 2 12 -8 3z"/>
</g>
</svg>
